<svg width="103" height="12" viewBox="0 0 103 12" fill="none" xmlns="http://www.w3.org/2000/svg">
<path d="M1.85254 9.25C2.16243 9.25 2.40169 9.33887 2.57031 9.5166C2.73893 9.68978 2.82324 9.90853 2.82324 10.1729C2.82324 10.4326 2.73893 10.6491 2.57031 10.8223C2.40169 10.9909 2.16243 11.0752 1.85254 11.0752C1.55632 11.0752 1.32161 10.9909 1.14844 10.8223C0.97526 10.6536 0.888672 10.4372 0.888672 10.1729C0.888672 9.90853 0.972982 9.68978 1.1416 9.5166C1.31022 9.33887 1.5472 9.25 1.85254 9.25ZM1.85254 3.44629C2.16243 3.44629 2.40169 3.53516 2.57031 3.71289C2.73893 3.88607 2.82324 4.10482 2.82324 4.36914C2.82324 4.62891 2.73893 4.84538 2.57031 5.01855C2.40169 5.18717 2.16243 5.27148 1.85254 5.27148C1.55632 5.27148 1.32161 5.18717 1.14844 5.01855C0.97526 4.84993 0.888672 4.63346 0.888672 4.36914C0.888672 4.10482 0.972982 3.88607 1.1416 3.71289C1.31022 3.53516 1.5472 3.44629 1.85254 3.44629ZM4.73047 11V1.04688H7.66992C8.54948 1.04688 9.32878 1.24284 10.0078 1.63477C10.6914 2.02669 11.2201 2.58268 11.5938 3.30273C11.9674 4.02279 12.1543 4.84766 12.1543 5.77734V6.27637C12.1543 7.21973 11.9652 8.04915 11.5869 8.76465C11.2132 9.48014 10.6777 10.0316 9.98047 10.4189C9.28776 10.8063 8.49251 11 7.59473 11H4.73047ZM6.45996 2.44141V9.61914H7.58789C8.49479 9.61914 9.18978 9.33659 9.67285 8.77148C10.1605 8.20182 10.4089 7.38607 10.418 6.32422V5.77051C10.418 4.69043 10.1833 3.86556 9.71387 3.2959C9.24447 2.72624 8.56315 2.44141 7.66992 2.44141H6.45996ZM16.9736 11.1367C15.9209 11.1367 15.0664 10.8063 14.4102 10.1455C13.7585 9.48014 13.4326 8.59603 13.4326 7.49316V7.28809C13.4326 6.5498 13.5739 5.89128 13.8564 5.3125C14.1436 4.72917 14.5446 4.27572 15.0596 3.95215C15.5745 3.62858 16.1488 3.4668 16.7822 3.4668C17.7894 3.4668 18.5664 3.78809 19.1133 4.43066C19.6647 5.07324 19.9404 5.98242 19.9404 7.1582V7.82812H15.1074C15.1576 8.4388 15.3604 8.92188 15.7158 9.27734C16.0758 9.63281 16.527 9.81055 17.0693 9.81055C17.8304 9.81055 18.4502 9.50293 18.9287 8.8877L19.8242 9.74219C19.528 10.1842 19.1315 10.5283 18.6348 10.7744C18.1426 11.016 17.5889 11.1367 16.9736 11.1367ZM16.7754 4.7998C16.3197 4.7998 15.9505 4.95931 15.668 5.27832C15.39 5.59733 15.2122 6.04167 15.1348 6.61133H18.2998V6.48828C18.2633 5.93229 18.1152 5.51302 17.8555 5.23047C17.5957 4.94336 17.2357 4.7998 16.7754 4.7998ZM22.7773 3.60352L22.8252 4.45801C23.3721 3.7972 24.0898 3.4668 24.9785 3.4668C26.5189 3.4668 27.3027 4.34863 27.3301 6.1123V11H25.6689V6.20801C25.6689 5.73861 25.5664 5.39225 25.3613 5.16895C25.1608 4.94108 24.8304 4.82715 24.3701 4.82715C23.7002 4.82715 23.2012 5.13021 22.873 5.73633V11H21.2119V3.60352H22.7773ZM31.1104 1.80566V3.60352H32.416V4.83398H31.1104V8.96289C31.1104 9.24544 31.165 9.45052 31.2744 9.57812C31.3883 9.70117 31.5889 9.7627 31.876 9.7627C32.0674 9.7627 32.2611 9.73991 32.457 9.69434V10.9795C32.0788 11.0843 31.7142 11.1367 31.3633 11.1367C30.0872 11.1367 29.4492 10.4326 29.4492 9.02441V4.83398H28.2324V3.60352H29.4492V1.80566H31.1104ZM38.1104 11C38.0374 10.8587 37.9736 10.6286 37.9189 10.3096C37.3903 10.861 36.7432 11.1367 35.9775 11.1367C35.2347 11.1367 34.6286 10.9248 34.1592 10.501C33.6898 10.0771 33.4551 9.55306 33.4551 8.92871C33.4551 8.1403 33.7467 7.53646 34.3301 7.11719C34.918 6.69336 35.7565 6.48145 36.8457 6.48145H37.8643V5.99609C37.8643 5.61328 37.7572 5.30794 37.543 5.08008C37.3288 4.84766 37.0029 4.73145 36.5654 4.73145C36.1872 4.73145 35.8773 4.82715 35.6357 5.01855C35.3942 5.2054 35.2734 5.44466 35.2734 5.73633H33.6123C33.6123 5.33073 33.7467 4.95247 34.0156 4.60156C34.2845 4.24609 34.6491 3.9681 35.1094 3.76758C35.5742 3.56706 36.0915 3.4668 36.6611 3.4668C37.527 3.4668 38.2174 3.68555 38.7324 4.12305C39.2474 4.55599 39.5117 5.16667 39.5254 5.95508V9.29102C39.5254 9.95638 39.6188 10.4873 39.8057 10.8838V11H38.1104ZM36.2852 9.80371C36.6133 9.80371 36.9209 9.72396 37.208 9.56445C37.4997 9.40495 37.7184 9.19076 37.8643 8.92188V7.52734H36.9688C36.3535 7.52734 35.891 7.63444 35.5811 7.84863C35.2712 8.06283 35.1162 8.36589 35.1162 8.75781C35.1162 9.07682 35.221 9.33203 35.4307 9.52344C35.6449 9.71029 35.9297 9.80371 36.2852 9.80371ZM43.0322 11H41.3711V0.5H43.0322V11ZM49.335 9.25C49.6449 9.25 49.8841 9.33887 50.0527 9.5166C50.2214 9.68978 50.3057 9.90853 50.3057 10.1729C50.3057 10.4326 50.2214 10.6491 50.0527 10.8223C49.8841 10.9909 49.6449 11.0752 49.335 11.0752C49.0387 11.0752 48.804 10.9909 48.6309 10.8223C48.4577 10.6536 48.3711 10.4372 48.3711 10.1729C48.3711 9.90853 48.4554 9.68978 48.624 9.5166C48.7926 9.33887 49.0296 9.25 49.335 9.25ZM49.335 3.44629C49.6449 3.44629 49.8841 3.53516 50.0527 3.71289C50.2214 3.88607 50.3057 4.10482 50.3057 4.36914C50.3057 4.62891 50.2214 4.84538 50.0527 5.01855C49.8841 5.18717 49.6449 5.27148 49.335 5.27148C49.0387 5.27148 48.804 5.18717 48.6309 5.01855C48.4577 4.84993 48.3711 4.63346 48.3711 4.36914C48.3711 4.10482 48.4554 3.88607 48.624 3.71289C48.7926 3.53516 49.0296 3.44629 49.335 3.44629ZM53.9424 7.30176V11H52.2129V1.04688H56.0205C57.1325 1.04688 58.0143 1.33626 58.666 1.91504C59.3223 2.49382 59.6504 3.25944 59.6504 4.21191C59.6504 5.18717 59.3291 5.94596 58.6865 6.48828C58.0485 7.0306 57.153 7.30176 56 7.30176H53.9424ZM53.9424 5.91406H56.0205C56.6357 5.91406 57.1051 5.77051 57.4287 5.4834C57.7523 5.19173 57.9141 4.77246 57.9141 4.22559C57.9141 3.68783 57.75 3.25944 57.4219 2.94043C57.0938 2.61686 56.6426 2.45052 56.0684 2.44141H53.9424V5.91406ZM64.8799 5.12109C64.6611 5.08464 64.4355 5.06641 64.2031 5.06641C63.4421 5.06641 62.9294 5.35807 62.665 5.94141V11H61.0039V3.60352H62.5898L62.6309 4.43066C63.0319 3.78809 63.5879 3.4668 64.2988 3.4668C64.5358 3.4668 64.7318 3.4987 64.8867 3.5625L64.8799 5.12109ZM70.1436 11C70.0706 10.8587 70.0068 10.6286 69.9521 10.3096C69.4235 10.861 68.7764 11.1367 68.0107 11.1367C67.2679 11.1367 66.6618 10.9248 66.1924 10.501C65.723 10.0771 65.4883 9.55306 65.4883 8.92871C65.4883 8.1403 65.7799 7.53646 66.3633 7.11719C66.9512 6.69336 67.7897 6.48145 68.8789 6.48145H69.8975V5.99609C69.8975 5.61328 69.7904 5.30794 69.5762 5.08008C69.362 4.84766 69.0361 4.73145 68.5986 4.73145C68.2204 4.73145 67.9105 4.82715 67.6689 5.01855C67.4274 5.2054 67.3066 5.44466 67.3066 5.73633H65.6455C65.6455 5.33073 65.7799 4.95247 66.0488 4.60156C66.3177 4.24609 66.6823 3.9681 67.1426 3.76758C67.6074 3.56706 68.1247 3.4668 68.6943 3.4668C69.5602 3.4668 70.2507 3.68555 70.7656 4.12305C71.2806 4.55599 71.5449 5.16667 71.5586 5.95508V9.29102C71.5586 9.95638 71.652 10.4873 71.8389 10.8838V11H70.1436ZM68.3184 9.80371C68.6465 9.80371 68.9541 9.72396 69.2412 9.56445C69.5329 9.40495 69.7516 9.19076 69.8975 8.92188V7.52734H69.002C68.3867 7.52734 67.9242 7.63444 67.6143 7.84863C67.3044 8.06283 67.1494 8.36589 67.1494 8.75781C67.1494 9.07682 67.2542 9.33203 67.4639 9.52344C67.6781 9.71029 67.9629 9.80371 68.3184 9.80371ZM76.3369 9.81055C76.7516 9.81055 77.0957 9.68978 77.3691 9.44824C77.6426 9.20671 77.7884 8.9082 77.8066 8.55273H79.3721C79.3538 9.01302 79.2103 9.44368 78.9414 9.84473C78.6725 10.2412 78.3079 10.5557 77.8477 10.7881C77.3874 11.0205 76.8906 11.1367 76.3574 11.1367C75.3229 11.1367 74.5026 10.8018 73.8965 10.1318C73.2904 9.46191 72.9873 8.53678 72.9873 7.35645V7.18555C72.9873 6.0599 73.2881 5.15983 73.8896 4.48535C74.4912 3.80632 75.3115 3.4668 76.3506 3.4668C77.2301 3.4668 77.9456 3.72428 78.4971 4.23926C79.0531 4.74967 79.3447 5.42188 79.3721 6.25586H77.8066C77.7884 5.83203 77.6426 5.4834 77.3691 5.20996C77.1003 4.93652 76.7562 4.7998 76.3369 4.7998C75.7992 4.7998 75.3844 4.99577 75.0928 5.3877C74.8011 5.77507 74.653 6.36523 74.6484 7.1582V7.4248C74.6484 8.22689 74.792 8.82617 75.0791 9.22266C75.3708 9.61458 75.79 9.81055 76.3369 9.81055ZM82.708 1.80566V3.60352H84.0137V4.83398H82.708V8.96289C82.708 9.24544 82.7627 9.45052 82.8721 9.57812C82.986 9.70117 83.1865 9.7627 83.4736 9.7627C83.665 9.7627 83.8587 9.73991 84.0547 9.69434V10.9795C83.6764 11.0843 83.3118 11.1367 82.9609 11.1367C81.6849 11.1367 81.0469 10.4326 81.0469 9.02441V4.83398H79.8301V3.60352H81.0469V1.80566H82.708ZM87.0557 11H85.3945V3.60352H87.0557V11ZM85.292 1.68262C85.292 1.42741 85.3717 1.21549 85.5312 1.04688C85.6953 0.878255 85.9277 0.793945 86.2285 0.793945C86.5293 0.793945 86.7617 0.878255 86.9258 1.04688C87.0898 1.21549 87.1719 1.42741 87.1719 1.68262C87.1719 1.93327 87.0898 2.1429 86.9258 2.31152C86.7617 2.47559 86.5293 2.55762 86.2285 2.55762C85.9277 2.55762 85.6953 2.47559 85.5312 2.31152C85.3717 2.1429 85.292 1.93327 85.292 1.68262ZM91.9092 9.81055C92.3239 9.81055 92.668 9.68978 92.9414 9.44824C93.2148 9.20671 93.3607 8.9082 93.3789 8.55273H94.9443C94.9261 9.01302 94.7826 9.44368 94.5137 9.84473C94.2448 10.2412 93.8802 10.5557 93.4199 10.7881C92.9596 11.0205 92.4629 11.1367 91.9297 11.1367C90.8952 11.1367 90.0749 10.8018 89.4688 10.1318C88.8626 9.46191 88.5596 8.53678 88.5596 7.35645V7.18555C88.5596 6.0599 88.8604 5.15983 89.4619 4.48535C90.0635 3.80632 90.8838 3.4668 91.9229 3.4668C92.8024 3.4668 93.5179 3.72428 94.0693 4.23926C94.6253 4.74967 94.917 5.42188 94.9443 6.25586H93.3789C93.3607 5.83203 93.2148 5.4834 92.9414 5.20996C92.6725 4.93652 92.3285 4.7998 91.9092 4.7998C91.3714 4.7998 90.9567 4.99577 90.665 5.3877C90.3734 5.77507 90.2253 6.36523 90.2207 7.1582V7.4248C90.2207 8.22689 90.3643 8.82617 90.6514 9.22266C90.943 9.61458 91.3623 9.81055 91.9092 9.81055ZM99.4561 11.1367C98.4033 11.1367 97.5488 10.8063 96.8926 10.1455C96.2409 9.48014 95.915 8.59603 95.915 7.49316V7.28809C95.915 6.5498 96.0563 5.89128 96.3389 5.3125C96.626 4.72917 97.027 4.27572 97.542 3.95215C98.057 3.62858 98.6312 3.4668 99.2646 3.4668C100.272 3.4668 101.049 3.78809 101.596 4.43066C102.147 5.07324 102.423 5.98242 102.423 7.1582V7.82812H97.5898C97.64 8.4388 97.8428 8.92188 98.1982 9.27734C98.5583 9.63281 99.0094 9.81055 99.5518 9.81055C100.313 9.81055 100.933 9.50293 101.411 8.8877L102.307 9.74219C102.01 10.1842 101.614 10.5283 101.117 10.7744C100.625 11.016 100.071 11.1367 99.4561 11.1367ZM99.2578 4.7998C98.8021 4.7998 98.4329 4.95931 98.1504 5.27832C97.8724 5.59733 97.6947 6.04167 97.6172 6.61133H100.782V6.48828C100.746 5.93229 100.598 5.51302 100.338 5.23047C100.078 4.94336 99.7181 4.7998 99.2578 4.7998Z" fill="#0055B8"/>
</svg>
