<svg width="133" height="15" viewBox="0 0 133 15" fill="none" xmlns="http://www.w3.org/2000/svg">
<path d="M0.0986328 12.752C0.0986328 12.3477 0.233398 12.0195 0.50293 11.7676C0.77832 11.5156 1.12109 11.3896 1.53125 11.3896C1.94727 11.3896 2.29004 11.5156 2.55957 11.7676C2.83496 12.0195 2.97266 12.3477 2.97266 12.752C2.97266 13.1504 2.83789 13.4756 2.56836 13.7275C2.29883 13.9736 1.95312 14.0967 1.53125 14.0967C1.11523 14.0967 0.772461 13.9736 0.50293 13.7275C0.233398 13.4756 0.0986328 13.1504 0.0986328 12.752ZM0.0986328 5.55371C0.0986328 5.14941 0.233398 4.82129 0.50293 4.56934C0.77832 4.31738 1.12109 4.19141 1.53125 4.19141C1.94727 4.19141 2.29004 4.31738 2.55957 4.56934C2.83496 4.82129 2.97266 5.14941 2.97266 5.55371C2.97266 5.95215 2.83789 6.27734 2.56836 6.5293C2.29883 6.77539 1.95312 6.89844 1.53125 6.89844C1.11523 6.89844 0.772461 6.77539 0.50293 6.5293C0.233398 6.27734 0.0986328 5.95215 0.0986328 5.55371ZM5.22266 14V1.20312H9.16016C10.2852 1.20312 11.29 1.45801 12.1748 1.96777C13.0654 2.47168 13.7598 3.19238 14.2578 4.12988C14.7559 5.06152 15.0049 6.12207 15.0049 7.31152V7.90039C15.0049 9.08984 14.7588 10.1475 14.2666 11.0732C13.7803 11.999 13.0918 12.7168 12.2012 13.2266C11.3105 13.7363 10.3057 13.9941 9.18652 14H5.22266ZM7.85938 3.33887V11.8818H9.13379C10.165 11.8818 10.9531 11.5449 11.498 10.8711C12.043 10.1973 12.3213 9.2334 12.333 7.97949V7.30273C12.333 6.00195 12.0635 5.01758 11.5244 4.34961C10.9854 3.67578 10.1973 3.33887 9.16016 3.33887H7.85938ZM61.71 12.752C61.71 12.3477 61.8447 12.0195 62.1143 11.7676C62.3896 11.5156 62.7324 11.3896 63.1426 11.3896C63.5586 11.3896 63.9014 11.5156 64.1709 11.7676C64.4463 12.0195 64.584 12.3477 64.584 12.752C64.584 13.1504 64.4492 13.4756 64.1797 13.7275C63.9102 13.9736 63.5645 14.0967 63.1426 14.0967C62.7266 14.0967 62.3838 13.9736 62.1143 13.7275C61.8447 13.4756 61.71 13.1504 61.71 12.752ZM61.71 5.55371C61.71 5.14941 61.8447 4.82129 62.1143 4.56934C62.3896 4.31738 62.7324 4.19141 63.1426 4.19141C63.5586 4.19141 63.9014 4.31738 64.1709 4.56934C64.4463 4.82129 64.584 5.14941 64.584 5.55371C64.584 5.95215 64.4492 6.27734 64.1797 6.5293C63.9102 6.77539 63.5645 6.89844 63.1426 6.89844C62.7266 6.89844 62.3838 6.77539 62.1143 6.5293C61.8447 6.27734 61.71 5.95215 61.71 5.55371ZM69.4707 9.49121V14H66.834V1.20312H71.8262C72.7871 1.20312 73.6309 1.37891 74.3574 1.73047C75.0898 2.08203 75.6523 2.58301 76.0449 3.2334C76.4375 3.87793 76.6338 4.61328 76.6338 5.43945C76.6338 6.69336 76.2031 7.68359 75.3418 8.41016C74.4863 9.13086 73.2998 9.49121 71.7822 9.49121H69.4707ZM69.4707 7.35547H71.8262C72.5234 7.35547 73.0537 7.19141 73.417 6.86328C73.7861 6.53516 73.9707 6.06641 73.9707 5.45703C73.9707 4.83008 73.7861 4.32324 73.417 3.93652C73.0479 3.5498 72.5381 3.35059 71.8877 3.33887H69.4707V7.35547Z" fill="#FFD600"/>
<path d="M21.1396 14.1758C19.7451 14.1758 18.6084 13.748 17.7295 12.8926C16.8564 12.0371 16.4199 10.8975 16.4199 9.47363V9.22754C16.4199 8.27246 16.6045 7.41992 16.9736 6.66992C17.3428 5.91406 17.8643 5.33398 18.5381 4.92969C19.2178 4.51953 19.9912 4.31445 20.8584 4.31445C22.1592 4.31445 23.1816 4.72461 23.9258 5.54492C24.6758 6.36523 25.0508 7.52832 25.0508 9.03418V10.0713H18.9951C19.0771 10.6924 19.3232 11.1904 19.7334 11.5654C20.1494 11.9404 20.6738 12.1279 21.3066 12.1279C22.2852 12.1279 23.0498 11.7734 23.6006 11.0645L24.8486 12.4619C24.4678 13.001 23.9521 13.4229 23.3018 13.7275C22.6514 14.0264 21.9307 14.1758 21.1396 14.1758ZM20.8496 6.37109C20.3457 6.37109 19.9355 6.54102 19.6191 6.88086C19.3086 7.2207 19.1094 7.70703 19.0215 8.33984H22.5547V8.1377C22.543 7.5752 22.3906 7.1416 22.0977 6.83691C21.8047 6.52637 21.3887 6.37109 20.8496 6.37109ZM28.8389 4.49023L28.918 5.58887C29.5977 4.73926 30.5088 4.31445 31.6514 4.31445C32.6592 4.31445 33.4092 4.61035 33.9014 5.20215C34.3936 5.79395 34.6455 6.67871 34.6572 7.85645V14H32.1172V7.91797C32.1172 7.37891 32 6.98926 31.7656 6.74902C31.5312 6.50293 31.1416 6.37988 30.5967 6.37988C29.8818 6.37988 29.3457 6.68457 28.9883 7.29395V14H26.4482V4.49023H28.8389ZM39.6318 2.15234V4.49023H41.2578V6.35352H39.6318V11.0996C39.6318 11.4512 39.6992 11.7031 39.834 11.8555C39.9688 12.0078 40.2266 12.084 40.6074 12.084C40.8887 12.084 41.1377 12.0635 41.3545 12.0225V13.9473C40.8564 14.0996 40.3438 14.1758 39.8164 14.1758C38.0352 14.1758 37.127 13.2764 37.0918 11.4775V6.35352H35.7031V4.49023H37.0918V2.15234H39.6318ZM48.1836 14C48.0664 13.7715 47.9814 13.4873 47.9287 13.1475C47.3135 13.833 46.5137 14.1758 45.5293 14.1758C44.5977 14.1758 43.8242 13.9062 43.209 13.3672C42.5996 12.8281 42.2949 12.1484 42.2949 11.3281C42.2949 10.3203 42.667 9.54688 43.4111 9.00781C44.1611 8.46875 45.2422 8.19629 46.6543 8.19043H47.8232V7.64551C47.8232 7.20605 47.709 6.85449 47.4805 6.59082C47.2578 6.32715 46.9033 6.19531 46.417 6.19531C45.9893 6.19531 45.6523 6.29785 45.4062 6.50293C45.166 6.70801 45.0459 6.98926 45.0459 7.34668H42.5059C42.5059 6.7959 42.6758 6.28613 43.0156 5.81738C43.3555 5.34863 43.8359 4.98242 44.457 4.71875C45.0781 4.44922 45.7754 4.31445 46.5488 4.31445C47.7207 4.31445 48.6494 4.61035 49.335 5.20215C50.0264 5.78809 50.3721 6.61426 50.3721 7.68066V11.8027C50.3779 12.7051 50.5039 13.3877 50.75 13.8506V14H48.1836ZM46.083 12.2334C46.458 12.2334 46.8037 12.1514 47.1201 11.9873C47.4365 11.8174 47.6709 11.5918 47.8232 11.3105V9.67578H46.874C45.6025 9.67578 44.9258 10.1152 44.8438 10.9941L44.835 11.1436C44.835 11.46 44.9463 11.7207 45.1689 11.9258C45.3916 12.1309 45.6963 12.2334 46.083 12.2334ZM55.0039 14H52.4551V0.5H55.0039V14ZM83.6299 6.87207C83.2842 6.8252 82.9795 6.80176 82.7158 6.80176C81.7549 6.80176 81.125 7.12695 80.8262 7.77734V14H78.2861V4.49023H80.6855L80.7559 5.62402C81.2656 4.75098 81.9717 4.31445 82.874 4.31445C83.1553 4.31445 83.4189 4.35254 83.665 4.42871L83.6299 6.87207ZM90.1074 14C89.9902 13.7715 89.9053 13.4873 89.8525 13.1475C89.2373 13.833 88.4375 14.1758 87.4531 14.1758C86.5215 14.1758 85.748 13.9062 85.1328 13.3672C84.5234 12.8281 84.2188 12.1484 84.2188 11.3281C84.2188 10.3203 84.5908 9.54688 85.335 9.00781C86.085 8.46875 87.166 8.19629 88.5781 8.19043H89.7471V7.64551C89.7471 7.20605 89.6328 6.85449 89.4043 6.59082C89.1816 6.32715 88.8271 6.19531 88.3408 6.19531C87.9131 6.19531 87.5762 6.29785 87.3301 6.50293C87.0898 6.70801 86.9697 6.98926 86.9697 7.34668H84.4297C84.4297 6.7959 84.5996 6.28613 84.9395 5.81738C85.2793 5.34863 85.7598 4.98242 86.3809 4.71875C87.002 4.44922 87.6992 4.31445 88.4727 4.31445C89.6445 4.31445 90.5732 4.61035 91.2588 5.20215C91.9502 5.78809 92.2959 6.61426 92.2959 7.68066V11.8027C92.3018 12.7051 92.4277 13.3877 92.6738 13.8506V14H90.1074ZM88.0068 12.2334C88.3818 12.2334 88.7275 12.1514 89.0439 11.9873C89.3604 11.8174 89.5947 11.5918 89.7471 11.3105V9.67578H88.7979C87.5264 9.67578 86.8496 10.1152 86.7676 10.9941L86.7588 11.1436C86.7588 11.46 86.8701 11.7207 87.0928 11.9258C87.3154 12.1309 87.6201 12.2334 88.0068 12.2334ZM98.2021 12.1279C98.6709 12.1279 99.0518 11.999 99.3447 11.7412C99.6377 11.4834 99.79 11.1406 99.8018 10.7129H102.184C102.178 11.3574 102.002 11.9492 101.656 12.4883C101.311 13.0215 100.836 13.4375 100.232 13.7363C99.6348 14.0293 98.9727 14.1758 98.2461 14.1758C96.8867 14.1758 95.8145 13.7451 95.0293 12.8838C94.2441 12.0166 93.8516 10.8213 93.8516 9.29785V9.13086C93.8516 7.66602 94.2412 6.49707 95.0205 5.62402C95.7998 4.75098 96.8691 4.31445 98.2285 4.31445C99.418 4.31445 100.37 4.6543 101.085 5.33398C101.806 6.00781 102.172 6.90723 102.184 8.03223H99.8018C99.79 7.54004 99.6377 7.1416 99.3447 6.83691C99.0518 6.52637 98.665 6.37109 98.1846 6.37109C97.5928 6.37109 97.1445 6.58789 96.8398 7.02148C96.541 7.44922 96.3916 8.14648 96.3916 9.11328V9.37695C96.3916 10.3555 96.541 11.0586 96.8398 11.4863C97.1387 11.9141 97.5928 12.1279 98.2021 12.1279ZM106.675 2.15234V4.49023H108.301V6.35352H106.675V11.0996C106.675 11.4512 106.742 11.7031 106.877 11.8555C107.012 12.0078 107.27 12.084 107.65 12.084C107.932 12.084 108.181 12.0635 108.397 12.0225V13.9473C107.899 14.0996 107.387 14.1758 106.859 14.1758C105.078 14.1758 104.17 13.2764 104.135 11.4775V6.35352H102.746V4.49023H104.135V2.15234H106.675ZM112.396 14H109.848V4.49023H112.396V14ZM109.698 2.0293C109.698 1.64844 109.824 1.33496 110.076 1.08887C110.334 0.842773 110.683 0.719727 111.122 0.719727C111.556 0.719727 111.901 0.842773 112.159 1.08887C112.417 1.33496 112.546 1.64844 112.546 2.0293C112.546 2.41602 112.414 2.73242 112.15 2.97852C111.893 3.22461 111.55 3.34766 111.122 3.34766C110.694 3.34766 110.349 3.22461 110.085 2.97852C109.827 2.73242 109.698 2.41602 109.698 2.0293ZM118.452 12.1279C118.921 12.1279 119.302 11.999 119.595 11.7412C119.888 11.4834 120.04 11.1406 120.052 10.7129H122.434C122.428 11.3574 122.252 11.9492 121.906 12.4883C121.561 13.0215 121.086 13.4375 120.482 13.7363C119.885 14.0293 119.223 14.1758 118.496 14.1758C117.137 14.1758 116.064 13.7451 115.279 12.8838C114.494 12.0166 114.102 10.8213 114.102 9.29785V9.13086C114.102 7.66602 114.491 6.49707 115.271 5.62402C116.05 4.75098 117.119 4.31445 118.479 4.31445C119.668 4.31445 120.62 4.6543 121.335 5.33398C122.056 6.00781 122.422 6.90723 122.434 8.03223H120.052C120.04 7.54004 119.888 7.1416 119.595 6.83691C119.302 6.52637 118.915 6.37109 118.435 6.37109C117.843 6.37109 117.395 6.58789 117.09 7.02148C116.791 7.44922 116.642 8.14648 116.642 9.11328V9.37695C116.642 10.3555 116.791 11.0586 117.09 11.4863C117.389 11.9141 117.843 12.1279 118.452 12.1279ZM128.261 14.1758C126.866 14.1758 125.729 13.748 124.851 12.8926C123.978 12.0371 123.541 10.8975 123.541 9.47363V9.22754C123.541 8.27246 123.726 7.41992 124.095 6.66992C124.464 5.91406 124.985 5.33398 125.659 4.92969C126.339 4.51953 127.112 4.31445 127.979 4.31445C129.28 4.31445 130.303 4.72461 131.047 5.54492C131.797 6.36523 132.172 7.52832 132.172 9.03418V10.0713H126.116C126.198 10.6924 126.444 11.1904 126.854 11.5654C127.271 11.9404 127.795 12.1279 128.428 12.1279C129.406 12.1279 130.171 11.7734 130.722 11.0645L131.97 12.4619C131.589 13.001 131.073 13.4229 130.423 13.7275C129.772 14.0264 129.052 14.1758 128.261 14.1758ZM127.971 6.37109C127.467 6.37109 127.057 6.54102 126.74 6.88086C126.43 7.2207 126.23 7.70703 126.143 8.33984H129.676V8.1377C129.664 7.5752 129.512 7.1416 129.219 6.83691C128.926 6.52637 128.51 6.37109 127.971 6.37109Z" fill="white"/>
</svg>
